<svg xmlns="http://www.w3.org/2000/svg" viewBox="0 0 64 64" width="64" height="64">
  <defs>
    <linearGradient id="bg" x1="0" y1="0" x2="0" y2="1">
      <stop offset="0" stop-color="#a970ff"/>
      <stop offset="1" stop-color="#7d2bff"/>
    </linearGradient>
  </defs>
  <rect x="2" y="2" width="60" height="60" rx="16" fill="url(#bg)"/>
  <!-- Stylized chat/glitch bubble (Twitch-adjacent, rounded + tail) -->
  <path d="M16 16h32a4 4 0 0 1 4 4v20a4 4 0 0 1-4 4H36l-8 8v-8h-12a4 4 0 0 1-4-4V20a4 4 0 0 1 4-4z" fill="#fff"/>
  <!-- Droplet inside the bubble for "Drops" -->
  <path d="M32 21c4.2 5.4 7 8.6 7 12.4a7 7 0 0 1-14 0c0-3.8 2.8-7 7-12.4z" fill="#7d2bff"/>
</svg>
